<?xml version="1.0" encoding="UTF-8"?><svg id="_圖層_2" xmlns="http://www.w3.org/2000/svg" viewBox="0 0 44.46 44.46"><path d="M30.81,13.88h-2.89v-1.44c0-1.63-1.35-1.71-2.98-1.71h-5.69c-1.63,0-2.81.09-2.81,1.71v1.44h-2.88c-1.54,0-2.81,1.27-2.81,2.81v12.9c0,1.63,1.27,2.89,2.81,2.89h17.25c1.54,0,2.89-1.27,2.89-2.89v-12.9c0-1.54-1.35-2.81-2.89-2.81h0ZM22.23,29.59c-3.17,0-5.79-2.52-5.79-5.68s2.62-5.77,5.79-5.77,5.69,2.62,5.69,5.77-2.52,5.68-5.69,5.68h0ZM29.83,19.11c-.81,0-1.44-.63-1.44-1.44,0-.73.63-1.36,1.44-1.36s1.45.63,1.45,1.36c0,.81-.63,1.44-1.45,1.44h0Z" fill="none" fill-rule="evenodd" stroke="#fff" stroke-miterlimit="10" stroke-width="1.2"/><path d="M19.24,23.58c.13-1.35,1.2-2.45,2.54-2.64" fill="none" fill-rule="evenodd" stroke="#fff" stroke-linecap="round" stroke-miterlimit="10" stroke-width="1.2"/></svg>