<?xml version="1.0" encoding="UTF-8"?><svg id="_圖層_2" xmlns="http://www.w3.org/2000/svg" viewBox="0 0 44.46 44.46"><path d="M14.27,13.22l-.08,8.26c0,.68.38,1.3.98,1.6l5.58,3.23c.68.35,1.45.46,2.2.31l7.45-1.81c.83-.14,1.44-.85,1.46-1.7l.18-9.33c.01-.6-.39-1.12-.97-1.27l-6.14-1.61c-.48-.12-.97-.15-1.46-.1l-7.82.87c-.78.09-1.37.76-1.37,1.54Z" fill="none" stroke="#fff" stroke-linecap="round" stroke-linejoin="round" stroke-width="1.2"/><polyline points="20.22 14.66 21.92 15.35 28.97 14.25" fill="none" stroke="#fff" stroke-linecap="round" stroke-linejoin="round" stroke-width="1.2"/><path d="M16.14,13.21c.32.03,6,2.02,6,2.02l-.17,9.52-5.45-3.27c-.28-.15-.46-.44-.46-.76l.09-7.5Z" fill="#fff" stroke="#fff" stroke-linecap="round" stroke-linejoin="round" stroke-width="1.2"/><path d="M36.93,28.39c1.11-.21,1.88-.52,2.66-1.51.21-.26.2-.77.01-1.11-.79-1.43-3.59-2.51-5.47-3.36,1.21.07,2.43.19,3.62.55,1.5.45,4.89,1.96,3.68,4.63-.85,1.6-2.19,2.25-3.6,2.56l-.91-1.77Z" fill="none" stroke="#fff" stroke-linecap="round" stroke-linejoin="round" stroke-width="1.2"/><path d="M11.6,22.07c-15.15,4.4-1.2,7.09,5.31,7.49,5.07.34,7.87.48,12.94-.08l-.39-2.3,4.17,2.09,1.01.41h0s0,0,0,0l-4.06,4.06-.41-2.39c-5.22.7-9.44.68-14.67.13-2.42-.29-4.83-.71-7.22-1.42-1.79-.62-3.73-1.08-5.16-2.75-2.25-3.7,6.67-5.04,8.47-5.25Z" fill="none" stroke="#fff" stroke-linecap="round" stroke-linejoin="round" stroke-width="1.2"/></svg>